# xmcd
#
# Track frame offsets: 
#        150
#        16600
#        38675
#        54343
#        69461
#        84841
#        96603
#        113603
#        131646
#        144589
#        161852
#        174842
#        188535
#        205759
#        223902
#        238593
#        262298
#        278689
#        288468
#        300949
#
# Disc length: 4317 seconds
#
# Revision: 7
# Processed by: cddbd v1.5PL3 Copyright (c) Steve Scherf et al.
# Submitted via: ExactAudioCopy v0.90b4
#
DISCID=1610db14
DTITLE=Conway Twitty - The Conway Twitty Collection - Disc 4
DYEAR=1994
DGENRE=Country
TTITLE0=I Want To Know You Before We Make Love
TTITLE1=That's My Job
TTITLE2=Goodbye Time
TTITLE3=Saturday Night Special
TTITLE4=(I Wish I Was) Still In YOur Dreams
TTITLE5=I Can't Help It (If I'm Still In Love With You)
TTITLE6=She's Got A Single Thing In Mind
TTITLE7=House On Old Lonesome Road
TTITLE8=Who's Gonna Know
TTITLE9=Crazy In Love
TTITLE10=I Couldn't See You Leavin'
TTITLE11=She's Got A Man On Her Mind
TTITLE12=Who Did They Think He Was
TTITLE13=I'm The Only Thing (I'll Hold Against You)
TTITLE14=Don't It Make You Lonely
TTITLE15=Rainy Night In Georgia (w-Sam Moore)
TTITLE16=I Will Always Find My Way To You
TTITLE17=Sweet Sweet Spirit
TTITLE18=Clinging To A Saving Hand
TTITLE19=Why Me Lord
EXTD=YEAR: 1994
EXTT0=
EXTT1=
EXTT2=
EXTT3=
EXTT4=
EXTT5=
EXTT6=
EXTT7=
EXTT8=
EXTT9=
EXTT10=
EXTT11=
EXTT12=
EXTT13=
EXTT14=
EXTT15=
EXTT16=Previously Unreleased\n
EXTT17=Previously Unreleased\n
EXTT18=
EXTT19=Live Version\nPreviously Unreleased\n
PLAYORDER=
